<?xml version="1.0" encoding="UTF-8" standalone="no"?>
<!-- Created with Inkscape (http://www.inkscape.org/) -->

<svg
   version="1.1"
   id="svg1414"
   width="176.451"
   height="83.056053"
   viewBox="0 0 176.45101 83.056054"
   sodipodi:docname="html,css y javaScript.svg"
   inkscape:version="1.2.2 (b0a8486, 2022-12-01)"
   xmlns:inkscape="http://www.inkscape.org/namespaces/inkscape"
   xmlns:sodipodi="http://sodipodi.sourceforge.net/DTD/sodipodi-0.dtd"
   xmlns="http://www.w3.org/2000/svg"
   xmlns:svg="http://www.w3.org/2000/svg">
  <defs
     id="defs1418" />
  <sodipodi:namedview
     id="namedview1416"
     pagecolor="#ffffff"
     bordercolor="#000000"
     borderopacity="0.25"
     inkscape:showpageshadow="2"
     inkscape:pageopacity="0.0"
     inkscape:pagecheckerboard="0"
     inkscape:deskcolor="#d1d1d1"
     showgrid="false"
     inkscape:zoom="2.9439833"
     inkscape:cx="83.390419"
     inkscape:cy="64.028896"
     inkscape:window-width="1300"
     inkscape:window-height="703"
     inkscape:window-x="0"
     inkscape:window-y="0"
     inkscape:window-maximized="1"
     inkscape:current-layer="g1424" />
  <g
     inkscape:groupmode="layer"
     inkscape:label="Image"
     id="g1420"
     transform="translate(-585.29108,-271.97952)">
    <g
       id="g1424"
       transform="translate(0.47501561,1.1384443)">
      <path
         style="fill:#e65325;stroke-width:0.172315"
         d="m 614.36499,344.96333 c -6.25449,-1.74802 -11.41864,-3.23295 -11.47589,-3.29985 -0.0908,-0.10605 -5.1677,-56.66859 -5.15747,-57.45962 0.004,-0.28595 1.46596,-0.30155 28.26363,-0.30155 15.54285,0 28.25987,0.0582 28.26005,0.12923 8.7e-4,0.3153 -5.00246,56.37905 -5.08777,57.01074 l -0.0954,0.70665 -11.59635,3.21352 c -6.37799,1.76744 -11.62844,3.20577 -11.66766,3.1963 -0.0392,-0.009 -5.18862,-1.44741 -11.44311,-3.19542 z m 18.95367,-11.09092 c 3.88571,-1.07282 7.09342,-1.97282 7.12824,-2 0.0785,-0.0613 1.90487,-20.24006 1.91267,-21.13197 l 0.006,-0.64618 H 629.47359 616.5816 l -0.20978,-2.54166 c -0.11539,-1.39791 -0.25666,-3.02629 -0.31395,-3.61862 l -0.10415,-1.07697 h 13.54275 13.54275 l 0.0887,-0.56003 c 0.0488,-0.30801 0.16953,-1.5293 0.26832,-2.71397 0.0988,-1.18467 0.22475,-2.52226 0.27991,-2.97244 l 0.10029,-0.8185 h -17.76501 c -14.09592,0 -17.76502,0.0445 -17.76641,0.2154 -0.003,0.40347 1.73551,20.02925 1.82436,20.5917 l 0.0885,0.56002 h 12.25031 12.25032 l -0.10153,0.90466 c -0.0558,0.49756 -0.2361,2.51315 -0.40057,4.47908 -0.16448,1.96593 -0.34271,3.63765 -0.39607,3.71493 -0.0977,0.14148 -7.16699,2.10416 -7.73224,2.14674 -0.23586,0.0178 -7.72661,-1.90178 -7.91807,-2.02905 -0.0247,-0.0164 -0.12008,-0.87553 -0.21198,-1.90913 -0.0919,-1.03361 -0.21296,-2.28639 -0.26905,-2.78395 l -0.10197,-0.90465 h -3.52007 -3.52006 l 0.0117,0.56002 c 0.006,0.30801 0.21966,2.80619 0.47387,5.55149 l 0.46219,4.99147 7.23725,2.01974 c 3.98049,1.11085 7.31479,1.99784 7.40956,1.97109 0.0948,-0.0267 3.35154,-0.9264 7.23725,-1.99922 z"
         id="path1432" />
      <path
         style="fill:#ffff00;stroke-width:0.172315"
         d="m 711.20311,345.86285 c -6.30244,-1.75716 -11.46824,-3.20435 -11.47955,-3.21599 -0.0472,-0.0485 -5.07232,-56.92556 -5.06774,-57.35914 l 0.005,-0.47386 h 28.27213 28.27213 l -0.1052,0.90465 c -0.0579,0.49756 -1.22649,13.49869 -2.59695,28.89139 -1.37048,15.3927 -2.51123,28.0043 -2.53502,28.02577 -0.0602,0.0544 -23.17935,6.45531 -23.24916,6.43693 -0.0312,-0.008 -5.21321,-1.4526 -11.51565,-3.20975 z m 18.84022,-11.01205 c 3.99606,-1.10128 7.27793,-2.0124 7.29304,-2.02471 0.0151,-0.0123 0.7321,-7.89289 1.59332,-17.5124 0.86121,-9.61951 1.6058,-17.7808 1.65463,-18.1362 l 0.0888,-0.64618 h -17.83668 c -14.15709,0 -17.83567,0.0444 -17.83178,0.21539 0.003,0.11847 0.11681,1.64992 0.25357,3.40323 0.13676,1.75331 0.25086,3.24599 0.25356,3.31708 0.003,0.0711 6.17301,0.12923 13.7118,0.12923 h 13.70688 l -0.0908,0.56003 c -0.0499,0.30801 -0.56634,5.60025 -1.14753,11.76053 -0.58118,6.16028 -1.08581,11.232 -1.12138,11.27049 -0.10977,0.11878 -7.37025,2.07212 -7.73634,2.08136 -0.38963,0.01 -7.68865,-1.88858 -7.87449,-2.04809 -0.0662,-0.0568 -0.20271,-0.99499 -0.30343,-2.08489 -0.10073,-1.08989 -0.22582,-2.31118 -0.27798,-2.71396 l -0.0948,-0.73234 h -3.53705 -3.53706 l 0.0972,0.64618 c 0.0535,0.3554 0.26285,2.85613 0.46526,5.55717 0.20241,2.70105 0.37871,4.91872 0.39178,4.92815 0.0189,0.0137 14.34201,3.9679 14.55609,4.01857 0.0318,0.008 3.32734,-0.88736 7.3234,-1.98864 z M 595.30802,276.3704 c 0,-2.03763 0.0249,-2.87121 0.0554,-1.85239 0.0305,1.01881 0.0305,2.68596 0,3.70478 -0.0305,1.01881 -0.0554,0.18524 -0.0554,-1.85239 z m 3.61862,0 c 0,-2.03763 0.0249,-2.87121 0.0554,-1.85239 0.0305,1.01881 0.0305,2.68596 0,3.70478 -0.0305,1.01881 -0.0554,0.18524 -0.0554,-1.85239 z m 8.22983,1.07697 c -0.0175,-1.4453 0.0263,-2.62798 0.0974,-2.62819 0.0711,-2e-4 0.10875,0.7946 0.0837,1.76624 -0.0827,3.21135 -0.14877,3.5257 -0.18108,0.86195 z m 4.93082,-0.0433 c -0.0284,-1.42174 0.006,-2.58487 0.0775,-2.58473 0.0711,1.4e-4 0.12923,1.16339 0.12923,2.58499 0,1.4216 -0.0349,2.58473 -0.0775,2.58473 -0.0426,0 -0.10079,-1.16324 -0.12924,-2.58499 z m 3.72995,-2.84294 c 7e-5,-3.03276 0.0235,-4.24916 0.0521,-2.70312 0.0286,1.54604 0.0285,4.02738 -1.2e-4,5.51409 -0.0287,1.48672 -0.0521,0.22178 -0.052,-2.81097 z m 53.59034,3.61862 0.009,-1.72315 2.19729,-0.008 2.19728,-0.008 -2.14824,0.0562 -2.14823,0.0562 -0.0581,1.67497 -0.0581,1.67498 0.009,-1.72316 z m -17.42944,-1.76542 c 0.83392,-0.0317 2.15214,-0.0315 2.92936,3.6e-4 0.77723,0.0319 0.0949,0.0578 -1.51622,0.0576 -1.61115,-1.9e-4 -2.24706,-0.0263 -1.41314,-0.0579 z m 6.41029,0.0152 c 1.63911,-0.12605 3.70555,-0.13498 3.70518,-0.016 -1.7e-4,0.0711 -0.98906,0.11569 -2.19742,0.0991 -1.20836,-0.0166 -1.88685,-0.054 -1.50776,-0.0831 z m 67.08064,-0.0156 c 1.5116,-0.0387 2.08348,-0.10966 1.99808,-0.24784 -0.0729,-0.11802 -0.042,-0.14559 0.0793,-0.0706 0.54958,0.33966 0.0385,0.44452 -1.99808,0.40999 l -2.19702,-0.0373 2.11772,-0.0543 z m -12.14663,-0.34428 c 0.83392,-0.0317 2.15213,-0.0315 2.92936,3.6e-4 0.77723,0.0319 0.0949,0.0578 -1.51622,0.0576 -1.61115,-1.9e-4 -2.24707,-0.0263 -1.41314,-0.0579 z m -43.91738,-3.02741 c -0.0478,-0.12456 -0.0643,-1.07444 -0.0366,-2.11086 l 0.0503,-1.8844 0.0851,2.11119 c 0.0468,1.16116 0.0633,2.11105 0.0366,2.11087 -0.0267,-1.8e-4 -0.0876,-0.10224 -0.13539,-0.2268 z m -17.42692,-0.0743 c 0.83392,-0.0316 2.15214,-0.0315 2.92936,3.6e-4 0.77723,0.0319 0.0949,0.0578 -1.51622,0.0576 -1.61115,-1.9e-4 -2.24706,-0.0263 -1.41314,-0.0579 z"
         id="path1428" />
      <path
         style="fill:#006fb9;stroke-width:0.172315"
         d="m 661.40904,337.55274 c -6.30244,-1.75716 -11.46787,-3.20435 -11.47873,-3.21599 -0.0463,-0.0496 -5.0718,-56.92923 -5.06788,-57.35914 l 0.004,-0.47386 h 28.27213 28.27213 l -0.10432,0.90465 c -0.0574,0.49756 -1.22531,13.49798 -2.59539,28.88982 -1.37009,15.39183 -2.51123,28.00365 -2.53589,28.02626 -0.0611,0.0561 -23.17518,6.45675 -23.24878,6.43801 -0.0322,-0.008 -5.21516,-1.4526 -11.5176,-3.20975 z m 18.85325,-11.01176 c 3.9889,-1.10112 7.27549,-2.02227 7.30353,-2.04698 0.0458,-0.0404 0.41507,-4.17184 2.53354,-28.34629 0.33636,-3.83833 0.60971,-7.15325 0.60743,-7.36649 l -0.004,-0.38771 h -17.66951 -17.66952 l 0.11094,1.24929 c 0.061,0.68711 0.19995,2.25733 0.30874,3.48939 l 0.19779,2.2401 13.56641,0.0441 13.5664,0.0441 -0.0965,0.7313 c -0.0531,0.40221 -0.22598,2.01074 -0.38427,3.5745 l -0.2878,2.84321 -12.90502,0.0442 -12.905,0.0442 0.10079,0.98971 c 0.0554,0.54434 0.1946,2.13346 0.30926,3.53137 l 0.20846,2.54165 h 12.30935 12.30934 l -0.0986,0.64618 c -0.0543,0.3554 -0.26329,2.39088 -0.46452,4.52328 -0.20122,2.13241 -0.37689,3.88316 -0.39037,3.89057 -0.0135,0.007 -1.78822,0.48506 -3.94388,1.06146 l -3.91939,1.048 -3.92096,-1.04504 c -2.15653,-0.57478 -3.96678,-1.11458 -4.02277,-1.19956 -0.056,-0.085 -0.20196,-1.3912 -0.32438,-2.9027 l -0.22259,-2.7482 h -3.67764 -3.67764 l 0.0805,0.47387 c 0.0443,0.26063 0.2821,2.80013 0.52848,5.64333 0.24638,2.84321 0.47086,5.19304 0.49885,5.22185 0.028,0.0288 3.33579,0.96979 7.35065,2.09107 4.01486,1.12128 7.33164,2.0476 7.37062,2.05848 0.039,0.0109 3.33451,-0.88112 7.3234,-1.98224 z"
         id="path1430" />
    </g>
  </g>
</svg>
