<?xml version="1.0" encoding="UTF-8" standalone="no"?>
<!-- Created with Inkscape (http://www.inkscape.org/) -->

<svg
   version="1.1"
   id="svg350"
   width="640"
   height="640"
   viewBox="0 0 640 640"
   sodipodi:docname="website.svg"
   inkscape:version="1.2.2 (b0a8486, 2022-12-01)"
   xmlns:inkscape="http://www.inkscape.org/namespaces/inkscape"
   xmlns:sodipodi="http://sodipodi.sourceforge.net/DTD/sodipodi-0.dtd"
   xmlns="http://www.w3.org/2000/svg"
   xmlns:svg="http://www.w3.org/2000/svg">
  <defs
     id="defs354" />
  <sodipodi:namedview
     id="namedview352"
     pagecolor="#ffffff"
     bordercolor="#000000"
     borderopacity="0.25"
     inkscape:showpageshadow="2"
     inkscape:pageopacity="0.0"
     inkscape:pagecheckerboard="0"
     inkscape:deskcolor="#d1d1d1"
     showgrid="false"
     inkscape:zoom="0.7390625"
     inkscape:cx="321.35307"
     inkscape:cy="296.99789"
     inkscape:window-width="1300"
     inkscape:window-height="703"
     inkscape:window-x="0"
     inkscape:window-y="0"
     inkscape:window-maximized="1"
     inkscape:current-layer="g356" />
  <g
     inkscape:groupmode="layer"
     inkscape:label="Image"
     id="g356">
    <g
       id="g360"
       transform="translate(7.1194492,1.4799156)">
      <path
         style="fill:#afafaf"
         d="m 115.65499,467.17126 c -1.49711,-1.65429 -1.65499,-6.9964 -1.65499,-56 0,-52.83793 0.0492,-54.22049 2,-56.17126 1.96013,-1.96013 3.33333,-2 68.88922,-2 64.36245,0 66.97839,0.0722 69.25,1.91115 l 2.36078,1.91115 0.28575,52.33885 c 0.15717,28.78637 0.044,53.31988 -0.2515,54.51892 -1.37499,5.57945 2.11053,5.31993 -71.45069,5.31993 -64.38796,0 -67.85626,-0.0913 -69.42857,-1.82874 z M 288,467.5 c -0.99319,-1.19672 -0.99319,-1.80328 0,-3 1.09134,-1.31499 13.54874,-1.5 101,-1.5 87.45126,0 99.90866,0.18501 101,1.5 0.99319,1.19672 0.99319,1.80328 0,3 -1.09134,1.31499 -13.54874,1.5 -101,1.5 -87.45126,0 -99.90866,-0.18501 -101,-1.5 z m -0.41026,-20.12675 C 285.87594,442.90717 283.87008,443 382.08726,443 c 87.41176,0 92.89502,0.10236 93.74243,1.75 2.24464,4.36431 4.76776,4.25 -93.80603,4.25 -85.71242,0 -93.86356,-0.14041 -94.43392,-1.62675 z m 0.98367,-18.9427 c -1.18468,-1.18468 -1.31615,-2.04273 -0.53624,-3.5 C 289.04574,423.04602 291.12961,423 375.4534,423 c 47.51066,0 87.09483,0.27314 87.96481,0.60699 1.87146,0.71814 2.0759,3.4989 0.38179,5.19301 -0.91478,0.91478 -21.69524,1.2 -87.42857,1.2 -77.01007,0 -86.39636,-0.16779 -87.79802,-1.56945 z m -0.53624,-20.3611 c -0.77991,-1.45727 -0.64844,-2.31532 0.53624,-3.5 C 289.97627,403.16658 299.77287,403 380.87143,403 c 69.23333,0 91.01287,0.2843 91.92857,1.2 1.69411,1.69411 1.48967,4.47487 -0.38179,5.19301 C 471.54823,409.72686 429.93906,410 379.9534,410 c -88.76983,0 -90.90706,-0.0449 -91.91623,-1.93055 z m 0.0714,-19.43867 c -0.62868,-0.7575 -0.86214,-2.10932 -0.5188,-3.00403 C 288.16145,384.13688 298.34947,384 408.67341,384 h 120.45943 l -0.31642,2.75 -0.31642,2.75 -119.62421,0.25403 c -100.60244,0.21365 -119.80596,0.035 -120.76725,-1.12325 z m -0.1052,-20.12676 c -0.99764,-1.20208 -0.99764,-1.80596 0,-3.00804 1.10049,-1.32602 15.46484,-1.47395 121.37244,-1.25 L 529.5,364.5 v 2.5 2.5 l -120.12422,0.25402 c -105.9076,0.22395 -120.27195,0.076 -121.37244,-1.25 z m -0.4136,-20.13077 C 285.86011,343.86593 282.13633,344 409.05506,344 c 118.75242,0 119.81574,0.0176 120.4421,1.99105 0.34756,1.09508 0.35133,2.44508 0.008,3 C 529.09172,349.66061 488.40346,350 408.54797,350 298.33988,350 288.16145,349.86311 287.58974,348.37325 Z m 0.65184,-72.62325 0.24157,-57.25 0.26668,56.75 0.26668,56.75 h 127.00765 127.00765 l -0.0485,-56.13409 c -0.0267,-30.87375 0.19117,-56.37375 0.48409,-56.66667 C 543.76034,218.90633 544,244.39167 544,275.83333 V 333 H 416 288 l 0.24158,-57.25 z m 3.42509,53.58333 C 291.3,328.96667 291,304.89167 291,275.83333 V 223 H 415.5 540 V 276.5 330 H 416.16667 c -68.10834,0 -124.13334,-0.3 -124.5,-0.66667 z M 116.63486,306.92742 c -3.18076,-2.50199 -3.39409,-5.9302 -0.53032,-8.52243 2.01791,-1.82658 4.80615,-1.91616 67.74136,-2.17633 48.62006,-0.201 66.37384,0.0339 68.47959,0.90616 5.14373,2.13061 5.54902,8.25642 0.71733,10.84226 C 251.79549,308.64464 228.22696,309 185.2006,309 c -65.1863,0 -65.96064,-0.0234 -68.56574,-2.07258 z M 119,282.29056 c -5.12908,-1.88593 -6.48479,-6.82936 -2.81144,-10.2516 C 118.34549,270.02947 119.33665,270 184.7543,270 c 43.33056,0 67.04081,0.35516 68.28852,1.02292 4.99578,2.67366 4.22705,8.99015 -1.32988,10.9273 -3.13483,1.09281 -129.78318,1.4176 -132.71294,0.34034 z m -2.81144,-28.32952 c -2.76559,-2.57654 -2.80018,-6.09744 -0.084,-8.55605 2.01636,-1.82519 4.8127,-1.91761 66.75,-2.20619 42.76216,-0.19924 65.85915,0.0515 68.23077,0.7408 6.13706,1.78361 7.27368,8.19237 1.95753,11.03748 -1.24775,0.66776 -24.958,1.02292 -68.28856,1.02292 -65.41765,0 -66.40881,-0.0295 -68.56574,-2.03896 z m 383.14477,-69.50087 c 0,-2.25176 3.29005,-4.87856 4.2219,-3.3708 0.45212,0.73154 0.33709,0.96212 -0.28741,0.57615 -1.13245,-0.69989 -3.604,1.66496 -2.69261,2.57635 0.30682,0.30682 0.15291,0.80813 -0.34201,1.11401 -0.49493,0.30588 -0.89987,-0.0972 -0.89987,-0.89571 z M 482.87244,183.25 c -1.24387,-1.58606 -1.2085,-1.62143 0.37756,-0.37756 1.66575,1.30637 2.19548,2.12756 1.37244,2.12756 -0.20765,0 -0.99515,-0.7875 -1.75,-1.75 z m -2.41356,-3.31653 c -0.36253,-0.58659 -0.38909,-1.33659 -0.059,-1.66667 0.33008,-0.33007 0.60014,-0.0486 0.60014,0.62555 0,0.67413 0.51953,0.9046 1.15451,0.51216 0.7153,-0.44208 0.88306,-0.27432 0.44098,0.44098 -0.88413,1.43055 -1.29636,1.44753 -2.13661,0.088 z M 479.232,174 c 0,-1.925 0.2058,-2.7125 0.45733,-1.75 0.25152,0.9625 0.25152,2.5375 0,3.5 -0.25153,0.9625 -0.45733,0.175 -0.45733,-1.75 z m 66.92589,0 c 0,-1.375 0.22698,-1.9375 0.50439,-1.25 0.27741,0.6875 0.27741,1.8125 0,2.5 -0.27741,0.6875 -0.50439,0.125 -0.50439,-1.25 z m -63.08935,-9.57296 c 2.67014,-2.84223 2.82393,-2.90014 2.53859,-0.95598 -0.27821,1.89557 -1.27296,2.86262 -3.24185,3.15159 -1.17881,0.17301 -1.0013,-0.38119 0.70326,-2.19561 z M 522,165.62244 c 0,-0.20765 0.7875,-0.99515 1.75,-1.75 1.58606,-1.24387 1.62143,-1.2085 0.37756,0.37756 C 522.82119,165.91575 522,166.44548 522,165.62244 Z m -30.1875,-3.30555 c 0.72187,-0.28887 1.58438,-0.25335 1.91667,0.0789 0.33229,0.33229 -0.25834,0.56864 -1.3125,0.52522 -1.16495,-0.048 -1.4019,-0.28494 -0.60417,-0.60416 z m -0.0625,-1.97917 c 0.6875,-0.27741 1.8125,-0.27741 2.5,0 0.6875,0.27741 0.125,0.50439 -1.25,0.50439 -1.375,0 -1.9375,-0.22698 -1.25,-0.50439 z m 40,0 c 0.6875,-0.27741 1.8125,-0.27741 2.5,0 0.6875,0.27741 0.125,0.50439 -1.25,0.50439 -1.375,0 -1.9375,-0.22698 -1.25,-0.50439 z"
         id="path366" />
      <path
         style="fill:#fd4848"
         d="m 97,184.67814 c 0,-20.52227 0.96604,-24.48629 7.57895,-31.09919 C 112.8437,145.31419 92.536136,146 329,146 c 236.46386,0 216.1563,-0.68581 224.42105,7.57895 6.61291,6.6129 7.57895,10.57692 7.57895,31.09919 V 202 H 329 97 Z m 403.38512,0.23356 c 6.38497,-5.02242 7.53178,-13.65887 2.5649,-19.31585 -3.94388,-4.49182 -8.53408,-6.05421 -13.70006,-4.66316 C 483.45771,162.49238 479,168.24667 479,174.16397 c 0,3.51225 3.21498,8.99596 6.41996,10.95035 4.26244,2.59923 11.52825,2.50086 14.96516,-0.20262 z m 39.73183,0.36014 c 1.60904,-0.95048 3.84188,-3.62107 4.96186,-5.93465 2.67075,-5.51702 1.81288,-10.37883 -2.61214,-14.80386 -4.37583,-4.37583 -9.11612,-5.22433 -14.89802,-2.66672 -5.30591,2.34706 -7.56865,6.14428 -7.56865,12.70138 0,4.08828 0.48164,5.14894 3.88235,8.54966 3.41155,3.41154 4.45393,3.88235 8.59571,3.88235 2.67097,0 5.98104,-0.74884 7.63889,-1.72816 z"
         id="path364" />
    </g>
  </g>
</svg>
